<?xml version="1.0" encoding="UTF-8" standalone="no"?>
<svg
   xmlns:dc="http://purl.org/dc/elements/1.1/"
   xmlns:cc="http://creativecommons.org/ns#"
   xmlns:rdf="http://www.w3.org/1999/02/22-rdf-syntax-ns#"
   xmlns:svg="http://www.w3.org/2000/svg"
   xmlns="http://www.w3.org/2000/svg"
   version="1.1"
   id="svg4657"
   viewBox="0 0 35.997002 23.999"
   height="6.7730513mm"
   width="10.159154mm">
  <defs
     id="defs4659" />
  <metadata
     id="metadata4662">
    <rdf:RDF>
      <cc:Work
         rdf:about="">
        <dc:format>image/svg+xml</dc:format>
        <dc:type
           rdf:resource="http://purl.org/dc/dcmitype/StillImage" />
        <dc:title></dc:title>
      </cc:Work>
    </rdf:RDF>
  </metadata>
  <g
     transform="translate(1777.9985,273.92301)"
     id="layer1">
    <path
       id="path313"
       d="m -1763.9995,-263.92401 -7.32,0 c 0,-2.204 0.113,-3.611 0.533,-4.713 0.419,-1.099 1.282,-2.447 2.121,-2.843 l 0,-2.443 c -2.347,0.527 -4.801,1.514 -6.601,3.696 -1.799,2.184 -2.732,4.932 -2.732,8.277 l 0,10.04 c 0,1.08 0.893,1.986 1.994,1.986 l 12.011,0 c 1.088,0 1.994,-0.899 1.994,-2.006 l 0,-9.987 c 0,-1.13 -0.896,-2.007 -2,-2.007 z m 20,0 -7.321,0 c 0,-2.204 0.114,-3.611 0.533,-4.713 0.419,-1.099 1.282,-2.447 2.12,-2.843 l 0,-2.443 c -2.347,0.527 -4.801,1.514 -6.601,3.696 -1.798,2.184 -2.732,4.932 -2.732,8.277 l 0,10.04 c 0,1.08 0.893,1.986 1.994,1.986 l 12.011,0 c 1.088,0 1.994,-0.899 1.994,-2.006 l 0,-9.987 c 10e-4,-1.13 -0.895,-2.007 -1.998,-2.007 z"
       style="fill:#cb3c33" />
    <path
       style="fill:#cb3c33"
       d="m -1763.9995,-263.92401 -7.32,0 c 0,-2.204 0.113,-3.611 0.533,-4.713 0.419,-1.099 1.282,-2.447 2.121,-2.843 l 0,-2.443 c -2.347,0.527 -4.801,1.514 -6.601,3.696 -1.799,2.184 -2.732,4.932 -2.732,8.277 l 0,10.04 c 0,1.08 0.893,1.986 1.994,1.986 l 12.011,0 c 1.088,0 1.994,-0.899 1.994,-2.006 l 0,-9.987 c 0,-1.13 -0.896,-2.007 -2,-2.007 z m 20,0 -7.321,0 c 0,-2.204 0.114,-3.611 0.533,-4.713 0.419,-1.099 1.282,-2.447 2.12,-2.843 l 0,-2.443 c -2.347,0.527 -4.801,1.514 -6.601,3.696 -1.798,2.184 -2.732,4.932 -2.732,8.277 l 0,10.04 c 0,1.08 0.893,1.986 1.994,1.986 l 12.011,0 c 1.088,0 1.994,-0.899 1.994,-2.006 l 0,-9.987 c 10e-4,-1.13 -0.895,-2.007 -1.998,-2.007 z"
       id="path5211" />
  </g>
</svg>
